<svg width="27" height="47" viewBox="0 0 27 47" fill="none" xmlns="http://www.w3.org/2000/svg">
<path fill-rule="evenodd" clip-rule="evenodd" d="M14.1659 0.278738C13.8675 0.436487 13.3971 0.823772 13.121 1.13927C12.8448 1.45477 12.4405 1.78896 12.2223 1.88186C11.8285 2.04987 10.7124 3.9059 10.7124 4.39272C10.7124 4.51533 10.537 4.92961 10.3225 5.31328C10.1079 5.69694 9.97686 6.01093 10.0311 6.01093C10.0853 6.01093 9.99646 6.19794 9.83374 6.42642C9.45083 6.96436 8.5903 8.74258 8.2469 9.70581C8.0991 10.1205 7.88947 10.6295 7.78119 10.8369C7.67291 11.0443 7.43207 11.7229 7.24581 12.345C6.9831 13.2232 6.77965 13.5955 6.33642 14.0106C5.87795 14.4398 5.78068 14.6244 5.84266 14.9482C5.88504 15.17 6.03932 15.3894 6.18546 15.4359C6.38875 15.5004 6.45254 15.6876 6.45646 16.2325C6.46732 17.7279 6.46868 17.7324 7.05383 18.1911C7.36556 18.4355 7.77335 18.7156 7.96005 18.8133C8.14676 18.9112 8.30179 19.0738 8.30496 19.1745C8.30797 19.2752 8.61865 19.5532 8.99553 19.7921C9.6962 20.2364 10.0808 20.2602 11.481 19.9468C11.8668 19.8605 11.873 19.8725 11.8815 20.7236C11.8891 21.5002 12.0121 22.5147 12.3723 24.7765C12.4812 25.4596 12.4582 25.5528 12.0888 25.9221C11.7089 26.302 11.3156 26.9858 11.3156 27.2663C11.3156 27.5381 11.8338 27.5682 12.7708 27.3511C13.3078 27.2265 13.8103 27.1245 13.8872 27.1245C14.0607 27.1245 15.3516 29.6717 15.605 30.5139C15.7074 30.8539 15.7511 31.2412 15.7024 31.3747C15.5576 31.7707 13.4811 33.6094 13.1783 33.6097C13.0248 33.6099 12.6581 33.8643 12.3636 34.1753C12.0691 34.4861 11.1868 35.1776 10.403 35.7119C9.61928 36.2462 8.79027 36.8698 8.56089 37.0977L8.14374 37.5121L8.46753 38.1332C8.67249 38.5263 8.86704 38.7251 8.99779 38.6749C9.15298 38.6153 9.20425 38.7583 9.20425 39.2511C9.20425 39.6497 9.29293 39.9802 9.43047 40.0943C9.55489 40.1976 9.65668 40.4095 9.65668 40.5652C9.65668 40.7209 9.77552 40.9752 9.9206 41.1304C10.0657 41.2854 10.377 41.6248 10.6121 41.8844C10.9046 42.2076 11.1782 42.3565 11.4792 42.3565C11.9273 42.3565 11.9897 42.4489 11.8273 42.872C11.7525 43.0668 11.4682 43.1105 10.278 43.1105C9.01513 43.1105 8.66087 43.0492 7.62767 42.6513L6.43505 42.1921L5.69034 42.5124C4.80403 42.8937 3.89599 43.0748 1.9653 43.2553C1.17731 43.3291 0.413751 43.4357 0.26867 43.4923C-0.326432 43.7243 0.081213 43.8646 1.3512 43.8646C2.59735 43.8646 4.97474 44.1107 5.11982 44.2546C5.28541 44.419 4.88878 44.5276 4.01618 44.5567C3.4888 44.5742 2.91782 44.6632 2.74741 44.7544C2.57699 44.8456 2.19559 44.9203 1.89985 44.9203C1.60411 44.9203 1.36205 44.9882 1.36205 45.0711C1.36205 45.1598 1.88688 45.2219 2.63505 45.2219C3.33527 45.2219 3.94515 45.2819 3.99054 45.3554C4.03579 45.4287 4.36396 45.5324 4.71972 45.5857C5.07549 45.639 5.55386 45.7799 5.78279 45.8986C6.11382 46.0704 6.37095 46.0827 7.04071 45.9589C7.6162 45.8525 8.00801 45.8521 8.27948 45.9579C8.64263 46.0993 9.23487 46.185 9.56198 46.1435C9.63437 46.1343 9.60043 46.0144 9.48657 45.877C9.2605 45.6042 9.14589 45.601 12.5221 45.9601C13.783 46.0942 14.3677 45.9761 13.8939 45.6832C13.5482 45.4697 13.8244 45.0711 14.3183 45.0711C14.5647 45.0711 14.811 45.1432 14.8654 45.2313C15.1418 45.6784 16.7448 45.7235 16.7448 45.2842C16.7448 45.1406 17.0532 45.0718 17.8382 45.04C18.8536 44.9989 18.9352 44.9707 18.9814 44.644C19.0486 44.1698 18.6342 43.7394 17.7157 43.3294C17.2419 43.1179 16.6554 42.6638 16.1699 42.1325C15.2937 41.1738 15.1915 40.6881 15.6137 39.4911C15.7382 39.1385 15.84 38.6836 15.84 38.4805C15.84 38.0424 16.8059 36.3476 17.5431 35.4923C17.8783 35.1034 18.3816 34.7565 18.9507 34.5223C20.1888 34.0125 21.1416 33.4036 21.5363 32.8697C22.1181 32.0828 21.9995 31.5629 20.5788 28.6711L19.2851 26.0379L19.6229 25.6782C19.9888 25.289 19.9913 25.3359 19.4374 22.3503C19.3287 21.7642 19.3483 21.3555 19.5173 20.6914C19.6407 20.2067 19.7031 19.6186 19.6562 19.3847C19.6012 19.1097 19.7178 18.5762 19.9859 17.8766C20.2142 17.2811 20.4665 16.6128 20.5466 16.3914C20.6269 16.17 20.9265 15.7758 21.2125 15.5155C21.4985 15.2552 21.773 14.8405 21.8223 14.5939C21.8717 14.3473 22.0734 14.0186 22.2707 13.8634C22.468 13.7082 22.7361 13.3257 22.8666 13.0137C23.186 12.2492 22.9202 10.7353 22.3046 9.81138C22.067 9.45471 21.8724 9.13062 21.8724 9.0911C21.8724 9.05174 22.0793 9.12639 22.3324 9.2573C22.8854 9.54324 23.265 9.44928 23.5259 8.96201C23.7244 8.59086 24.161 8.37324 24.6197 8.41667C24.7798 8.43176 24.914 8.3001 24.9713 8.07147C25.0533 7.74466 25.1281 7.71028 25.6174 7.77407C26.2966 7.86275 27 7.61164 27 7.28046C27 7.14518 26.7358 6.70255 26.413 6.29717C25.9633 5.73238 25.7872 5.33922 25.66 4.61668C25.4546 3.4497 25.1841 3.07674 24.1317 2.50999C23.4229 2.12829 23.1762 2.07279 22.3995 2.11985C21.5619 2.17067 21.4403 2.22617 20.7783 2.86048C20.3847 3.23766 20.0627 3.65133 20.0627 3.77982C20.0627 4.13906 19.7295 4.33376 19.2665 4.24478C18.9655 4.18702 18.8695 4.09517 18.9251 3.91887C19.1196 3.30341 19.2349 2.26975 19.1622 1.79334C19.0553 1.09327 18.2246 0.550199 16.764 0.225502C15.3509 -0.0884876 14.841 -0.0780821 14.1659 0.278738ZM19.6834 5.71655C19.6294 5.88636 19.6671 6.12389 19.7671 6.24439C20.0156 6.5439 19.7374 6.86286 19.153 6.94868C18.6594 7.02107 18.5826 6.83195 18.8755 6.2649C19.2649 5.51129 19.8812 5.09279 19.6834 5.71655ZM13.5778 37.5337C13.5778 37.7121 13.4223 37.9095 13.2033 38.0092C12.9432 38.1277 12.799 38.3457 12.7311 38.7224C12.5213 39.8891 12.0697 39.952 12.0697 38.8144C12.0697 38.017 12.0882 37.9793 12.5791 37.7741C12.8593 37.6571 13.1347 37.4865 13.1913 37.3951C13.3577 37.1257 13.5778 37.2046 13.5778 37.5337Z" fill="#3061AB"/>
</svg>
