<svg width="98" height="168" viewBox="0 0 98 168" fill="none" xmlns="http://www.w3.org/2000/svg">
<path fill-rule="evenodd" clip-rule="evenodd" d="M51.4171 1.01458C50.3338 1.58879 48.6265 2.9985 47.6243 4.14691C46.622 5.29531 45.1544 6.51179 44.3624 6.84994C42.9331 7.46148 38.8819 14.2174 38.8819 15.9894C38.8819 16.4357 38.2453 17.9437 37.4669 19.3402C36.688 20.7368 36.2123 21.8797 36.4094 21.8797C36.6059 21.8797 36.2835 22.5604 35.6928 23.3921C34.303 25.3502 31.1796 31.8229 29.9332 35.329C29.3967 36.8386 28.6359 38.6913 28.2428 39.4462C27.8498 40.201 26.9756 42.6712 26.2996 44.9357C25.3461 48.1322 24.6076 49.4876 22.9989 50.9983C21.3348 52.5606 20.9817 53.2325 21.2067 54.4111C21.3605 55.2186 21.9205 56.0174 22.4509 56.1864C23.1888 56.4214 23.4203 57.1026 23.4346 59.086C23.474 64.5294 23.4789 64.5459 25.6028 66.2152C26.7342 67.1051 28.2144 68.1245 28.8921 68.4802C29.5697 68.8365 30.1324 69.4283 30.1439 69.795C30.1549 70.1617 31.2825 71.1734 32.6504 72.0429C35.1936 73.6601 36.5894 73.7469 41.6719 72.6061C43.0722 72.2921 43.0946 72.3355 43.1253 75.4338C43.1532 78.2603 43.5993 81.9531 44.907 90.1863C45.3022 92.6725 45.2185 93.0118 43.8779 94.3562C42.4991 95.739 41.0715 98.2279 41.0715 99.249C41.0715 100.238 42.9523 100.348 46.3532 99.5575C48.3025 99.104 50.1264 98.7329 50.4056 98.7329C51.0351 98.7329 55.7207 108.005 56.6403 111.07C57.012 112.308 57.1708 113.718 56.994 114.204C56.4685 115.645 48.9314 122.338 47.8323 122.339C47.275 122.34 45.9443 123.266 44.8753 124.398C43.8062 125.529 40.604 128.046 37.7592 129.991C34.9144 131.936 31.9054 134.206 31.0729 135.035L29.5588 136.544L30.734 138.804C31.4779 140.235 32.1841 140.959 32.6586 140.776C33.2219 140.559 33.408 141.08 33.408 142.874C33.408 144.324 33.7299 145.527 34.2291 145.943C34.6807 146.319 35.0502 147.09 35.0502 147.657C35.0502 148.224 35.4815 149.149 36.0081 149.714C36.5347 150.278 37.6645 151.514 38.5179 152.459C39.5798 153.635 40.5728 154.177 41.6654 154.177C43.2917 154.177 43.5183 154.514 42.9288 156.053C42.6573 156.763 41.6254 156.922 37.3054 156.922C32.7216 156.922 31.4358 156.698 27.6856 155.25L23.3568 153.579L20.6538 154.745C17.4368 156.132 14.141 156.792 7.13331 157.449C4.2732 157.717 1.50176 158.105 0.975173 158.311C-1.18483 159.156 0.294773 159.667 4.90434 159.667C9.42742 159.667 18.0565 160.563 18.5831 161.086C19.1841 161.685 17.7445 162.08 14.5773 162.186C12.663 162.249 10.5906 162.573 9.97207 162.905C9.35352 163.238 7.96918 163.509 6.89575 163.509C5.82231 163.509 4.94375 163.756 4.94375 164.058C4.94375 164.381 6.84867 164.607 9.56427 164.607C12.1058 164.607 14.3194 164.826 14.4842 165.093C14.6484 165.36 15.8395 165.737 17.1308 165.931C18.4221 166.126 20.1584 166.638 20.9894 167.07C22.1909 167.696 23.1242 167.741 25.5552 167.29C27.644 166.902 29.0661 166.901 30.0514 167.286C31.3695 167.801 33.5191 168.113 34.7064 167.962C34.9692 167.928 34.846 167.492 34.4327 166.992C33.6122 165.999 33.1962 165.987 45.4506 167.294C50.0273 167.782 52.1496 167.352 50.4297 166.286C49.175 165.509 50.1773 164.058 51.97 164.058C52.8644 164.058 53.7583 164.321 53.9559 164.641C54.9593 166.269 60.7775 166.433 60.7775 164.834C60.7775 164.311 61.8969 164.061 64.7461 163.945C68.4317 163.795 68.7278 163.693 68.8953 162.504C69.1394 160.778 67.6352 159.211 64.3016 157.718C62.5817 156.949 60.4529 155.296 58.6908 153.362C55.5105 149.872 55.1394 148.104 56.6721 143.747C57.1237 142.464 57.4932 140.808 57.4932 140.068C57.4932 138.474 60.9992 132.305 63.6748 129.192C64.8917 127.776 66.7183 126.513 68.7842 125.661C73.2777 123.805 76.7361 121.589 78.1686 119.645C80.2804 116.781 79.8502 114.889 74.6932 104.362L69.9977 94.7778L71.2239 93.4685C72.5519 92.0517 72.5612 92.2224 70.5506 81.3548C70.1559 79.2215 70.2271 77.7339 70.8407 75.3163C71.2885 73.552 71.5151 71.4116 71.3449 70.5602C71.1451 69.5589 71.5682 67.6172 72.5414 65.0707C73.3702 62.9029 74.286 60.4705 74.5767 59.6646C74.8679 58.8587 75.9555 57.4238 76.9934 56.4763C78.0318 55.5288 79.028 54.0192 79.207 53.1216C79.386 52.2241 80.1184 51.0274 80.8344 50.4625C81.5504 49.8976 82.5237 48.5055 82.9972 47.3697C84.1565 44.5871 83.192 39.0762 80.9576 35.7133C80.0949 34.415 79.3888 33.2353 79.3888 33.0915C79.3888 32.9482 80.1398 33.2199 81.0583 33.6964C83.0656 34.7372 84.4433 34.3952 85.3903 32.6216C86.1107 31.2706 87.6954 30.4785 89.3605 30.6366C89.9413 30.6915 90.4285 30.2122 90.6365 29.38C90.9343 28.1904 91.2058 28.0653 92.9815 28.2975C95.447 28.6203 98 27.7063 98 26.5008C98 26.0084 97.041 24.3972 95.8696 22.9216C94.2372 20.8658 93.5979 19.4347 93.1364 16.8046C92.3909 12.5568 91.4089 11.1993 87.5892 9.13632C85.0165 7.74693 84.1209 7.54492 81.3019 7.71619C78.2617 7.90119 77.8205 8.1032 75.4174 10.4121C73.9887 11.785 72.8201 13.2908 72.8201 13.7585C72.8201 15.0661 71.6109 15.7748 69.9304 15.4509C68.8378 15.2407 68.4891 14.9064 68.6911 14.2646C69.3972 12.0244 69.8154 8.26184 69.5516 6.52771C69.1635 3.97947 66.1485 2.0027 60.847 0.820805C55.718 -0.322112 53.8672 -0.284236 51.4171 1.01458ZM71.4434 20.8081C71.2474 21.4263 71.3843 22.2909 71.7472 22.7295C72.6493 23.8197 71.6393 24.9807 69.5182 25.2931C67.7266 25.5566 67.448 24.8682 68.511 22.8041C69.9244 20.061 72.1616 18.5377 71.4434 20.8081ZM49.2823 136.622C49.2823 137.272 48.718 137.99 47.9231 138.353C46.9789 138.784 46.4556 139.578 46.2093 140.949C45.4478 145.196 43.8084 145.425 43.8084 141.284C43.8084 138.382 43.8757 138.244 45.6575 137.497C46.6745 137.071 47.6741 136.45 47.8794 136.118C48.4837 135.137 49.2823 135.424 49.2823 136.622Z" fill="#3061AB"/>
</svg>
